Coordinates
version=1
nRows=20
nColumns=38
inDegrees=no

Units are S.I. units (second, meters, Newtons, ...)
If the header above contains a line with 'inDegrees', this indicates whether rotational values are in degrees (yes) or radians (no).

endheader
time	pelvis_tilt	pelvis_list	pelvis_rotation	pelvis_tx	pelvis_ty	pelvis_tz	hip_flexion_r	hip_adduction_r	hip_rotation_r	knee_angle_r	ankle_angle_r	subtalar_angle_r	mtp_angle_r	hip_flexion_l	hip_adduction_l	hip_rotation_l	knee_angle_l	ankle_angle_l	subtalar_angle_l	mtp_angle_l	lumbar_extension	lumbar_bending	lumbar_rotation	arm_flex_r	arm_add_r	arm_rot_r	elbow_flex_r	pro_sup_r	wrist_flex_r	wrist_dev_r	arm_flex_l	arm_add_l	arm_rot_l	elbow_flex_l	pro_sup_l	wrist_flex_l	wrist_dev_l
2.16	0.00570096	1.44935	-1.42526	0.494533	-0.600617	0.926633	-0.34528	0.00864441	-0.0813467	0.608276	-0.27913	0	0	0.2091	0.0541978	0.00351684	0.232996	-0.395159	0	0	-0.320284	0.0811781	0.00866431	-0.254478	-0.436964	0.430387	0.752526	0.934512	0	0	-0.196265	-0.275394	0.134005	0.663671	1.36781	0	0
2.17	0.0370933	1.4486	-1.455	0.497108	-0.612183	0.92719	-0.334551	-0.0130931	-0.106672	0.647727	-0.324648	0	0	0.208165	0.055253	-0.00707135	0.262358	-0.36323	0	0	-0.318633	0.0772063	0.00283633	-0.258175	-0.438658	0.4344	0.75482	0.935596	0	0	-0.207338	-0.273371	0.118069	0.671685	1.37981	0	0
2.18	0.0547598	1.44781	-1.47172	0.500057	-0.622964	0.928399	-0.318384	-0.00188959	-0.0561699	0.689831	-0.350405	0	0	0.201178	0.0592123	-0.00439305	0.27792	-0.349716	0	0	-0.318573	0.0758999	-0.000611688	-0.259526	-0.440545	0.437656	0.753911	0.936339	0	0	-0.212116	-0.268933	0.106565	0.672706	1.38955	0	0
2.19	0.130554	1.44792	-1.54413	0.502821	-0.634261	0.92842	-0.294019	-0.0491787	-0.131745	0.754833	-0.410903	0	0	0.194003	0.0710133	-0.0065413	0.293682	-0.33078	0	0	-0.316345	0.0665389	-0.0100117	-0.264403	-0.44182	0.440082	0.759442	0.937388	0	0	-0.226529	-0.269147	0.0903993	0.687975	1.39657	0	0
2.2	0.116615	1.44031	-1.52832	0.506082	-0.644448	0.930715	-0.29332	-0.069342	-0.198055	0.765209	-0.499237	0	0	0.176251	0.0714315	-0.00828589	0.300771	-0.318519	0	0	-0.325013	0.0708323	-0.0149313	-0.263147	-0.446428	0.442662	0.761249	0.936705	0	0	-0.228879	-0.261963	0.0768454	0.687514	1.40725	0	0
2.21	0.00405852	1.41189	-1.41032	0.510682	-0.653364	0.937186	-0.349555	-0.0396677	-0.250045	0.653807	-0.644076	0	0	0.129089	0.0571116	0.00773144	0.28359	-0.317899	0	0	-0.358156	0.0975589	-0.0127897	-0.257114	-0.456426	0.445438	0.759531	0.932774	0	0	-0.210226	-0.243355	0.06451	0.662701	1.43221	0	0
2.22	0.102858	1.41082	-1.5048	0.513928	-0.664209	0.936582	-0.317679	-0.145256	-0.498958	0.792073	-0.698132	0	0	0.119194	0.074627	-0.0108521	0.301452	-0.296724	0	0	-0.352934	0.0828707	-0.00173474	-0.297313	-0.441709	0.374565	0.776041	0.98459	0	0	-0.200491	-0.292562	0.210533	0.68178	1.30631	0	0
2.23	0.123939	1.41007	-1.5273	0.516369	-0.673778	0.937317	-0.291736	-0.162263	-0.48936	0.846541	-0.698132	0	0	0.108235	0.0790793	-0.0173328	0.307261	-0.282467	0	0	-0.356938	0.0792866	-0.0236238	-0.271646	-0.464516	0.441195	0.780982	0.933997	0	0	-0.226522	-0.268664	0.117686	0.694508	1.37188	0	0
2.24	0.114682	1.40643	-1.51964	0.518237	-0.682899	0.938812	-0.274421	-0.166503	-0.460762	0.878128	-0.698132	0	0	0.0934515	0.0768152	-0.0218506	0.310056	-0.273807	0	0	-0.361904	0.0805744	-0.0242023	-0.26976	-0.466577	0.441608	0.78257	0.93609	0	0	-0.226848	-0.270814	0.124038	0.697443	1.36176	0	0
2.25	0.146889	1.40441	-1.55116	0.518814	-0.692961	0.938747	-0.210665	-0.190054	-0.403806	1.01795	-0.698132	0	0	0.0802981	0.0785448	-0.0317192	0.314747	-0.26149	0	0	-0.362595	0.0720484	-0.0302964	-0.271966	-0.463187	0.439414	0.787691	0.938328	0	0	-0.238405	-0.282859	0.130831	0.716968	1.34545	0	0
2.26	0.152267	1.40162	-1.55663	0.520669	-0.701747	0.939928	-0.184324	-0.202307	-0.404769	1.06654	-0.698132	0	0	0.065108	0.0789271	-0.0342393	0.312616	-0.255679	0	0	-0.366226	0.0711201	-0.0320319	-0.270261	-0.463356	0.439056	0.788154	0.942711	0	0	-0.237223	-0.286397	0.140864	0.719117	1.33357	0	0
2.27	0.182463	1.40365	-1.58798	0.522381	-0.710343	0.94019	-0.137261	-0.201205	-0.352094	1.13045	-0.698132	0	0	0.0557108	0.0842774	-0.0362716	0.310294	-0.251468	0	0	-0.364679	0.06552	-0.0340805	-0.269743	-0.463184	0.43776	0.789912	0.947262	0	0	-0.237804	-0.289851	0.147374	0.722943	1.32648	0	0
2.28	0.171116	1.39834	-1.5774	0.524024	-0.718794	0.941801	-0.113536	-0.206967	-0.350382	1.16919	-0.698132	0	0	0.037006	0.0809168	-0.0423337	0.305459	-0.246688	0	0	-0.371547	0.0677226	-0.0340059	-0.268249	-0.463105	0.432878	0.790829	0.951869	0	0	-0.233739	-0.291386	0.156316	0.721929	1.31726	0	0
2.29	0.139305	1.39097	-1.54873	0.525419	-0.727527	0.943445	-0.0924847	-0.20775	-0.347252	1.20235	-0.698132	0	0	0.013248	0.0733766	-0.0508729	0.295943	-0.236153	0	0	-0.380005	0.0732147	-0.0306055	-0.268327	-0.464151	0.426579	0.793564	0.956775	0	0	-0.230131	-0.292301	0.165498	0.720851	1.3084	0	0
2.3	0.114926	1.38693	-1.52445	0.527039	-0.735648	0.945162	-0.0679014	-0.20823	-0.345447	1.2318	-0.691879	0	0	-1.7532e-05	0.0655387	-0.0660132	0.300179	-0.239733	0	0	-0.387666	0.0784584	-0.0394778	-0.253512	-0.468301	0.443749	0.790005	0.95186	0	0	-0.234979	-0.273983	0.114216	0.717365	1.35073	0	0
2.31	0.062373	1.37796	-1.46941	0.528875	-0.743588	0.947808	-0.0622799	-0.220852	-0.39843	1.24462	-0.674458	0	0	-0.021399	0.0524626	-0.0741654	0.296157	-0.235884	0	0	-0.39854	0.0913621	-0.042104	-0.243673	-0.472547	0.454947	0.787281	0.944413	0	0	-0.228455	-0.266224	0.105112	0.708433	1.35831	0	0
2.32	0.0199136	1.36421	-1.42182	0.531044	-0.751403	0.950648	-0.0540209	-0.212729	-0.405247	1.25668	-0.641275	0	0	-0.051552	0.0406786	-0.0753229	0.280488	-0.236303	0	0	-0.410728	0.10528	-0.0271458	-0.262508	-0.463322	0.406663	0.79075	0.973937	0	0	-0.200483	-0.289754	0.203066	0.6976	1.28282	0	0
2.33	0.0244691	1.37551	-1.42443	0.532825	-0.759523	0.950217	-0.00248764	-0.200822	-0.355718	1.28995	-0.597104	0	0	-0.0510672	0.0439477	-0.0768212	0.279693	-0.229129	0	0	-0.401182	0.104142	-0.0534725	-0.227239	-0.483981	0.486383	0.787451	0.906972	0	0	-0.222528	-0.248138	0.0682939	0.694658	1.39465	0	0
2.34	-0.0279991	1.36624	-1.36727	0.535017	-0.76706	0.952856	0.00303473	-0.203357	-0.395027	1.28472	-0.584384	0	0	-0.0715684	0.0296994	-0.0807039	0.274006	-0.227446	0	0	-0.409965	0.119819	-0.0509057	-0.223995	-0.484537	0.482929	0.782853	0.908487	0	0	-0.208284	-0.244554	0.0794011	0.680547	1.39028	0	0
2.35	-0.0507495	1.39067	-1.35584	0.535221	-0.773335	0.951498	0.0865545	-0.0533953	-0.0586383	1.29044	-0.535964	0	0	-0.0496106	0.0316453	-0.084664	0.28205	-0.220607	0	0	-0.38851	0.115635	-0.0418275	-0.21676	-0.480814	0.480804	0.773082	0.913302	0	0	-0.198965	-0.244752	0.0917343	0.670761	1.37858	0	0
